<svg width="" height="" viewBox="0 0 514 182" fill="none" xmlns="http://www.w3.org/2000/svg">
<path fill-rule="evenodd" clip-rule="evenodd" d="M51.896 0.535513C34.3523 2.8115 19.3642 11.8962 9.88464 26.0004C-0.503875 41.4567 -2.76211 59.6684 3.38604 78.4128C4.30308 81.2085 9.07067 91.3594 13.9801 100.969C24.0056 120.595 26.3551 126.741 27.4171 136.116C27.8181 139.658 28.4153 142.906 28.7445 143.334C29.6147 144.465 86.8558 144.465 87.7385 143.334C88.0721 142.906 88.6531 139.976 89.0291 136.822C90.291 126.25 91.8521 121.999 101.191 103.701C114.594 77.4411 116.238 72.4832 116.238 58.3181C116.238 50.9331 115.983 48.3487 114.827 44.0199C110.251 26.8863 99.1571 13.5679 83.2245 6.08157C75.9007 2.64054 71.5554 1.39344 63.8593 0.524323C57.6474 -0.176938 57.3863 -0.176316 51.896 0.535513ZM67.9198 5.74089C78.079 7.57113 87.082 12.2201 94.9568 19.7021C106.212 30.3963 111.634 42.8822 111.643 58.1322C111.651 70.8027 110.068 75.6519 98.4594 98.5131C90.2835 114.615 85.4109 126.189 85.4109 129.508C85.4109 130.314 81.8783 130.434 58.2371 130.434C33.5814 130.434 31.0633 130.34 31.0633 129.425C31.0633 126.164 25.7804 113.638 18.0118 98.4814C13.0249 88.752 8.44786 78.912 7.26096 75.3684C5.26134 69.4015 5.192 68.8587 5.16577 58.9397C5.13391 46.879 6.12028 42.4589 10.8923 33.2629C14.3536 26.5935 22.0198 18.1976 28.6602 13.8041C40.0675 6.25688 54.4222 3.30885 67.9198 5.74089ZM32.056 50.9057C28.8601 54.6856 30.6579 62.6699 34.7053 62.6699C38.0611 62.6699 40.2393 58.3305 39.198 53.7201C38.5927 51.0363 36.6899 48.9928 34.7977 48.9928C34.1793 48.9928 32.9455 49.8538 32.056 50.9057ZM79.1122 50.1528C77.9453 51.0928 77.6242 52.067 77.4206 55.2817C77.2076 58.6451 77.3756 59.5117 78.5244 60.9602C81.576 64.8103 86.0281 61.8436 86.0331 55.9556C86.0381 50.2393 82.5911 47.349 79.1122 50.1528ZM32.6251 68.3751C29.9008 69.9374 29.7284 72.5074 32.0441 77.055C36.3538 85.5187 46.2351 90.6457 58.2371 90.6457C67.2295 90.6457 73.6956 88.3349 79.5145 83.0425C84.968 78.0827 87.365 72.1773 85.1492 69.1609C84.3009 68.0052 83.1958 67.948 59.0686 67.8062C40.9484 67.6999 33.5233 67.8597 32.6251 68.3751ZM84.1616 137.272V139.759H58.2371H32.3127V137.272V134.785H58.2371H84.1616V137.272ZM33.1773 149.981C32.9874 150.473 32.9293 151.382 33.0492 152.001C33.2541 153.059 34.7071 153.134 57.9329 153.289C80.2623 153.437 82.6717 153.355 83.3564 152.426C83.883 151.711 83.9242 151.047 83.4907 150.242C82.8997 149.143 81.6185 149.084 58.1953 149.084C37.2846 149.084 33.4703 149.221 33.1773 149.981ZM33.1773 159.306C32.9874 159.798 32.9293 160.708 33.0492 161.326C33.2541 162.384 34.7071 162.46 57.9329 162.614C80.2623 162.762 82.6717 162.68 83.3564 161.751C83.883 161.037 83.9242 160.373 83.4907 159.567C82.8997 158.468 81.6185 158.409 58.1953 158.409C37.2846 158.409 33.4703 158.546 33.1773 159.306ZM40.1213 167.668L37.6225 168.046L37.6544 170.885C37.7337 177.872 44.644 181.412 58.2078 181.412C70.7814 181.412 77.1507 178.724 79.1254 172.583C80.1836 169.293 79.3071 168.008 75.6665 167.511C72.0714 167.022 43.5664 167.146 40.1213 167.668ZM73.5076 173.06C71.2999 175.707 69.2503 176.127 58.5495 176.127C49.4803 176.127 47.9461 175.978 45.7772 174.884C40.6816 172.313 41.7205 172.086 58.5738 172.086C72.7942 172.086 74.241 172.181 73.5076 173.06Z" fill=""/>
<path fill-rule="evenodd" clip-rule="evenodd" d="M182.746 52.6559C169.489 54.7154 161.221 65.5664 163.714 77.6336C165.469 86.1296 171.606 91.2428 185.649 95.9077C192.56 98.2031 196.977 100.493 199.207 102.935C200.899 104.788 201.12 105.303 201.12 107.389C201.12 110.819 198.949 113.925 195.203 115.852C189.378 118.849 180.489 117.78 176.185 113.564C175.048 112.45 174.017 111.215 173.894 110.82C173.704 110.209 173.18 110.274 170.378 111.255C162.607 113.977 162.32 114.459 165.75 119.022C170.098 124.807 177.763 128.542 186.156 128.966C190.631 129.192 195.926 128.387 199.248 126.976C201.897 125.851 206.416 122.19 208.372 119.586C211.539 115.37 212.231 113.175 212.216 107.403C212.204 102.718 212.092 102.098 210.829 99.7148C208.957 96.1844 204.88 92.1462 200.953 89.9339C199.16 88.9234 194.129 86.8355 189.775 85.294C180.4 81.9756 177.165 80.004 175.485 76.5851C174.449 74.4771 174.409 74.1215 174.954 71.8295C175.714 68.6316 178.049 65.984 181.029 64.9403C186.531 63.0144 193.854 63.7534 198.393 66.6937L200.693 68.1838L202.216 66.8052C203.053 66.0469 204.86 64.3517 206.23 63.0384L208.722 60.6502L207.66 59.5085C205.948 57.6696 201.623 55.2401 197.783 53.96C193.818 52.6381 186.785 52.0283 182.746 52.6559ZM249.199 52.8923C234.839 55.9969 223.043 67.4702 219.688 81.5974C218.53 86.4751 218.428 93.9135 219.452 98.8292C222.323 112.607 233.283 124.152 247.057 127.91C252.744 129.461 261.304 129.337 267.407 127.614L269.192 127.11V120.834C269.192 115.046 269.127 114.586 268.359 114.906C262.011 117.548 255.512 118.248 250.167 116.866C240.936 114.479 232.497 105.705 230.611 96.5338C229.787 92.5243 230.253 84.802 231.52 81.5061C232.993 77.6692 236.468 72.7905 239.584 70.1832C247.611 63.4661 258.177 62.0625 268.359 66.3612C269.128 66.6855 269.192 66.2286 269.192 60.4532V54.1935L265.979 53.4622C261.183 52.37 252.914 52.0894 249.199 52.8923ZM279.189 90.6359V128.116H284.663H290.137V112.259V96.4021H305.37H320.603L320.606 108.295C320.608 114.836 320.747 121.972 320.915 124.152L321.22 128.116H326.624H332.028V90.6359V53.1556H326.554H321.079V69.0127V84.8697H305.608H290.137V69.0127V53.1556H284.663H279.189V90.6359ZM343.929 90.6359V128.116H362.97H382.011V122.59V117.064H368.682H355.353V106.733V96.4021H365.588H375.823V90.6359V84.8697H365.588H355.353V74.7789V64.688H368.682H382.011V58.9218V53.1556H362.97H343.929V90.6359ZM391.055 90.942L391.055 128.837L403.789 128.514C418.389 128.144 421.227 127.634 427.846 124.19C430.962 122.57 432.782 121.126 436.804 117.087C441.128 112.746 442.131 111.433 443.792 107.935C447.027 101.125 447.468 99.0589 447.441 90.8762C447.423 85.6842 447.188 82.7948 446.602 80.5451C444.098 70.9256 436.436 61.7228 426.996 56.9945C420.595 53.789 419.077 53.5405 404.265 53.2796L391.056 53.047L391.055 90.942ZM457.224 90.7416C457.224 111.474 457.312 128.527 457.421 128.637C457.529 128.747 463.26 128.694 470.154 128.519C480.5 128.256 483.326 128.032 486.326 127.231C498.017 124.113 507.869 115.023 512.029 103.518C513.682 98.946 514.367 92.1207 513.811 85.7644C512.782 74.0028 503.982 61.9082 492.613 56.6322C486.459 53.7769 484.85 53.5338 470.433 53.2796L457.224 53.047V90.7416ZM482.451 65.2267C484.151 65.4967 486.731 66.3573 488.183 67.1387C504.509 75.9225 507.863 96.1479 495.143 109.115C489.652 114.713 484.717 116.604 473.766 117.308L468.648 117.637V90.98V64.3228L474.004 64.529C476.949 64.6419 480.75 64.9562 482.451 65.2267ZM416.381 65.2176C423.282 66.6658 430.75 72.7285 434.077 79.584C437.699 87.0493 437.183 97.4977 432.853 104.331C429.449 109.705 424.201 113.917 418.737 115.665C416.443 116.398 413.789 116.748 409.104 116.935L402.636 117.193L402.321 103.794C402.148 96.4252 402.006 84.6117 402.005 77.5418L402.004 64.688H407.931C411.191 64.688 414.993 64.9264 416.381 65.2176Z" fill=""/>
</svg>
