<svg width="512" height="512" viewBox="0 0 512 512" fill="none" xmlns="http://www.w3.org/2000/svg">
<rect width="512" height="512" rx="50" fill="#3F72AF" fill-opacity="0.2"/>
<rect width="512" height="512" rx="50" fill="#3490DE"/>
<path fill-rule="evenodd" clip-rule="evenodd" d="M245.828 63.8767C217.152 67.6029 192.652 82.476 177.157 105.567C160.176 130.871 156.485 160.687 166.535 191.374C168.034 195.951 175.827 212.57 183.852 228.303C200.239 260.433 204.079 270.495 205.815 285.844C206.471 291.643 207.447 296.961 207.985 297.66C209.408 299.512 302.973 299.512 304.416 297.66C304.961 296.961 305.91 292.163 306.525 286.999C308.588 269.692 311.139 262.731 326.405 232.775C348.313 189.783 351 181.666 351 158.476C351 146.386 350.583 142.155 348.693 135.068C341.214 107.017 323.08 85.2128 297.037 72.9565C285.066 67.323 277.963 65.2813 265.383 63.8584C255.229 62.7103 254.802 62.7113 245.828 63.8767ZM272.02 72.3987C288.626 75.3951 303.342 83.0062 316.214 95.2554C334.612 112.764 343.475 133.205 343.49 158.172C343.503 178.915 340.915 186.854 321.94 224.282C308.575 250.643 300.611 269.591 300.611 275.026C300.611 276.344 294.837 276.541 256.193 276.541C215.892 276.541 211.775 276.388 211.775 274.889C211.775 269.55 203.14 249.044 190.442 224.23C182.29 208.301 174.809 192.192 172.869 186.39C169.6 176.621 169.487 175.733 169.444 159.494C169.392 139.748 171.004 132.512 178.804 117.457C184.462 106.538 196.993 92.7924 207.847 85.5996C226.494 73.2435 249.957 68.4171 272.02 72.3987ZM213.398 146.341C208.174 152.529 211.113 165.601 217.728 165.601C223.214 165.601 226.774 158.496 225.072 150.948C224.083 146.554 220.972 143.209 217.88 143.209C216.869 143.209 214.852 144.619 213.398 146.341ZM290.315 145.108C288.408 146.647 287.883 148.242 287.55 153.505C287.202 159.011 287.477 160.43 289.354 162.802C294.342 169.105 301.62 164.248 301.628 154.608C301.636 145.25 296.002 140.518 290.315 145.108ZM214.328 174.941C209.875 177.499 209.593 181.706 213.379 189.151C220.423 203.008 236.575 211.401 256.193 211.401C270.892 211.401 281.461 207.618 290.973 198.954C299.887 190.834 303.805 181.166 300.183 176.227C298.796 174.335 296.99 174.242 257.552 174.01C227.933 173.836 215.797 174.097 214.328 174.941ZM298.569 287.736V291.808H256.193H213.818V287.736V283.665H256.193H298.569V287.736ZM215.231 308.542C214.92 309.348 214.825 310.837 215.022 311.85C215.356 313.582 217.732 313.705 255.696 313.959C292.195 314.201 296.133 314.067 297.253 312.545C298.113 311.376 298.181 310.289 297.472 308.97C296.506 307.17 294.412 307.074 256.125 307.074C221.945 307.074 215.71 307.298 215.231 308.542ZM215.231 323.809C214.92 324.615 214.825 326.104 215.022 327.117C215.356 328.849 217.732 328.972 255.696 329.226C292.195 329.468 296.133 329.334 297.253 327.812C298.113 326.643 298.181 325.556 297.472 324.237C296.506 322.437 294.412 322.341 256.125 322.341C221.945 322.341 215.71 322.565 215.231 323.809ZM226.581 337.499L222.497 338.117L222.549 342.766C222.679 354.206 233.974 360 256.145 360C276.698 360 287.109 355.599 290.337 345.546C292.066 340.16 290.634 338.056 284.683 337.243C278.806 336.441 232.213 336.645 226.581 337.499ZM281.154 346.327C277.545 350.661 274.195 351.349 256.704 351.349C241.879 351.349 239.372 351.104 235.826 349.313C227.497 345.105 229.195 344.733 256.744 344.733C279.988 344.733 282.353 344.888 281.154 346.327Z" fill="white"/>
<path fill-rule="evenodd" clip-rule="evenodd" d="M134.27 403.194C123.875 404.808 117.392 413.308 119.347 422.76C120.723 429.415 125.535 433.421 136.546 437.075C141.964 438.873 145.428 440.666 147.176 442.58C148.503 444.031 148.676 444.434 148.676 446.068C148.676 448.755 146.974 451.188 144.037 452.698C139.47 455.046 132.5 454.208 129.125 450.906C128.234 450.033 127.425 449.066 127.329 448.756C127.18 448.278 126.769 448.328 124.572 449.097C118.479 451.229 118.254 451.607 120.943 455.181C124.353 459.712 130.363 462.638 136.944 462.97C140.452 463.147 144.604 462.517 147.208 461.411C149.285 460.53 152.829 457.663 154.363 455.622C156.845 452.321 157.389 450.601 157.377 446.079C157.367 442.409 157.279 441.924 156.289 440.057C154.821 437.292 151.624 434.128 148.546 432.395C147.139 431.604 143.195 429.968 139.781 428.761C132.43 426.161 129.894 424.617 128.576 421.939C127.764 420.288 127.733 420.009 128.16 418.214C128.756 415.709 130.587 413.635 132.923 412.817C137.237 411.308 142.979 411.887 146.538 414.191L148.342 415.358L149.535 414.278C150.192 413.684 151.608 412.356 152.683 411.327L154.637 409.457L153.804 408.562C152.462 407.122 149.071 405.219 146.06 404.216C142.951 403.18 137.437 402.703 134.27 403.194ZM186.374 403.38C175.114 405.811 165.866 414.799 163.235 425.865C162.327 429.686 162.247 435.513 163.05 439.363C165.301 450.155 173.895 459.2 184.694 462.143C189.154 463.358 195.866 463.261 200.651 461.911L202.05 461.516V456.601C202.05 452.066 202 451.706 201.397 451.957C196.42 454.026 191.324 454.574 187.133 453.492C179.896 451.622 173.279 444.749 171.8 437.565C171.153 434.424 171.519 428.375 172.512 425.794C173.668 422.788 176.392 418.966 178.835 416.924C185.129 411.662 193.414 410.563 201.397 413.93C202 414.184 202.05 413.826 202.05 409.302V404.399L199.531 403.826C195.77 402.97 189.287 402.751 186.374 403.38ZM209.888 432.945V462.305H214.181H218.473V449.883V437.462H230.417H242.361L242.363 446.778C242.364 451.902 242.473 457.492 242.605 459.199L242.844 462.305H247.082H251.319V432.945V403.586H247.026H242.734V416.007V428.428H230.604H218.473V416.007V403.586H214.181H209.888V432.945ZM260.65 432.945V462.305H275.58H290.509V457.976V453.647H280.058H269.608V445.555V437.462H277.632H285.657V432.945V428.428H277.632H269.608V420.524V412.619H280.058H290.509V408.103V403.586H275.58H260.65V432.945ZM297.601 433.185L297.6 462.869L307.585 462.616C319.032 462.326 321.258 461.927 326.448 459.229C328.891 457.96 330.318 456.829 333.471 453.665C336.862 450.265 337.648 449.236 338.951 446.496C341.487 441.162 341.833 439.543 341.812 433.133C341.798 429.066 341.614 426.803 341.154 425.041C339.19 417.506 333.183 410.297 325.781 406.593C320.762 404.082 319.572 403.887 307.959 403.683L297.601 403.501L297.601 433.185ZM349.482 433.028C349.482 449.268 349.552 462.626 349.637 462.712C349.722 462.798 354.215 462.757 359.621 462.62C367.733 462.415 369.949 462.238 372.301 461.611C381.467 459.168 389.192 452.048 392.454 443.036C393.75 439.455 394.287 434.108 393.851 429.129C393.045 419.916 386.144 410.442 377.23 406.309C372.405 404.072 371.143 403.882 359.84 403.683L349.482 403.501V433.028ZM369.262 413.041C370.595 413.253 372.618 413.927 373.756 414.539C386.558 421.42 389.187 437.263 379.214 447.42C374.909 451.805 371.039 453.287 362.452 453.839L358.44 454.096V433.215V412.333L362.639 412.495C364.949 412.583 367.929 412.829 369.262 413.041ZM317.458 413.034C322.869 414.169 328.725 418.918 331.333 424.288C334.173 430.136 333.768 438.32 330.374 443.673C327.704 447.882 323.59 451.182 319.305 452.551C317.507 453.126 315.426 453.4 311.752 453.546L306.681 453.748L306.434 443.253C306.298 437.48 306.187 428.226 306.186 422.688L306.186 412.619H310.833C313.389 412.619 316.37 412.806 317.458 413.034Z" fill="white"/>
</svg>
